<?xml version="1.0" standalone="no"?>
<!DOCTYPE svg PUBLIC "-//W3C//DTD SVG 20010904//EN"
 "http://www.w3.org/TR/2001/REC-SVG-20010904/DTD/svg10.dtd">
<svg version="1.0" xmlns="http://www.w3.org/2000/svg"
 width="855.000000pt" height="1280.000000pt" viewBox="0 0 855.000000 1280.000000"
 preserveAspectRatio="xMidYMid meet">
<g transform="translate(0.000000,1280.000000) scale(0.100000,-0.100000)"
fill="#000000" stroke="none">
<path d="M3576 12740 c-654 -329 -1079 -958 -1147 -1700 -28 -306 30 -683 150
-959 60 -139 103 -177 196 -169 63 5 108 35 135 88 28 55 25 98 -14 192 -88
213 -125 384 -133 608 -7 200 6 326 52 505 83 323 240 596 474 824 130 127
261 219 439 310 56 29 111 64 122 78 49 62 45 159 -8 216 -33 35 -93 67 -124
67 -13 0 -77 -27 -142 -60z"/>
<path d="M5303 12719 c-60 -38 -91 -113 -73 -179 17 -62 53 -95 178 -160 166
-86 289 -177 427 -315 146 -146 233 -266 324 -447 133 -264 191 -506 191 -794
0 -235 -37 -426 -125 -650 -25 -64 -45 -129 -45 -145 0 -112 124 -197 225
-154 57 23 74 42 110 121 128 278 193 661 167 981 -61 742 -487 1384 -1134
1709 -124 62 -186 71 -245 33z"/>
<path d="M3910 12251 c-105 -33 -305 -167 -438 -295 -129 -125 -214 -237 -291
-386 -116 -225 -160 -392 -168 -640 -8 -243 22 -421 105 -623 45 -110 84 -147
160 -155 94 -9 171 54 180 148 4 39 -2 65 -26 127 -75 187 -103 373 -84 551
45 409 265 738 626 932 104 56 118 69 141 125 52 123 -74 256 -205 216z"/>
<path d="M5071 12193 c-82 -41 -112 -160 -59 -240 19 -28 46 -49 94 -74 126
-62 217 -129 324 -238 197 -201 300 -422 332 -709 19 -176 -13 -387 -87 -562
-30 -72 -32 -130 -4 -179 48 -86 155 -113 236 -59 45 30 74 83 123 229 63 189
89 475 59 672 -73 493 -369 909 -805 1134 -95 48 -153 55 -213 26z"/>
<path d="M4094 11691 c-230 -112 -405 -328 -474 -586 -27 -101 -36 -266 -21
-364 18 -114 69 -257 105 -296 103 -108 286 -37 286 111 0 23 -12 73 -26 110
-22 55 -28 92 -32 181 -4 101 -2 121 21 196 15 46 44 110 65 142 49 77 148
168 221 205 100 50 143 120 127 206 -13 68 -98 134 -173 134 -10 0 -55 -17
-99 -39z"/>
<path d="M4826 11657 c-44 -25 -86 -93 -86 -139 0 -34 24 -95 47 -121 10 -10
49 -35 88 -55 137 -72 250 -217 290 -372 25 -97 17 -251 -18 -351 -30 -84 -34
-137 -13 -177 55 -105 193 -127 269 -43 42 46 72 124 99 251 25 119 20 284
-11 405 -68 257 -254 487 -483 595 -76 36 -128 38 -182 7z"/>
<path d="M4566 11070 c-62 -19 -106 -83 -106 -155 0 -59 22 -107 66 -140 l34
-26 -2 -242 -3 -242 -100 -6 c-117 -7 -150 -21 -190 -78 -15 -23 -37 -43 -49
-46 -12 -2 -47 -9 -78 -15 -91 -18 -102 -32 -108 -136 l-5 -88 -115 -43 c-304
-115 -517 -256 -747 -497 -114 -119 -120 -124 -168 -130 -273 -35 -545 -450
-545 -831 0 -171 42 -280 151 -388 l72 -72 18 -105 c39 -237 126 -471 245
-658 19 -29 34 -58 34 -65 0 -21 -90 -137 -106 -137 -8 0 -29 21 -47 46 -17
26 -40 56 -49 68 -17 21 -17 21 -32 1 -8 -11 -37 -57 -63 -103 -46 -79 -49
-83 -78 -77 -136 26 -212 11 -289 -56 -54 -48 -83 -93 -106 -166 -16 -54 -18
-55 -82 -83 -69 -29 -199 -113 -238 -155 -13 -14 -31 -25 -39 -25 -9 0 -34 31
-59 73 -107 181 -275 332 -449 402 -32 13 -58 29 -58 36 0 7 31 22 68 35 222
75 393 258 458 489 32 112 31 268 0 382 -40 142 -30 151 -190 -163 -78 -154
-146 -283 -151 -287 -10 -12 -740 360 -748 381 -3 10 51 126 137 295 79 153
140 281 137 284 -13 13 -121 -21 -208 -64 -71 -36 -107 -62 -172 -127 -92 -92
-144 -175 -183 -291 -25 -72 -27 -94 -27 -220 0 -124 3 -149 27 -220 30 -91
82 -181 145 -256 l44 -50 -17 -42 c-58 -145 -28 -301 82 -418 l45 -49 3 -152
c2 -180 17 -244 95 -404 111 -228 288 -404 494 -491 44 -19 97 -50 119 -69 56
-51 120 -76 207 -81 70 -5 83 -2 197 40 185 69 328 171 448 321 33 41 64 75
68 75 12 1 14 -12 26 -164 15 -176 49 -347 102 -510 46 -139 158 -375 239
-499 l51 -79 24 23 24 22 33 -47 c18 -25 41 -59 50 -74 l18 -28 -60 -84 c-33
-46 -60 -89 -60 -94 0 -6 16 -34 35 -63 l36 -52 -38 -77 c-35 -72 -38 -83 -37
-162 1 -100 30 -188 95 -287 22 -35 37 -67 33 -75 -11 -24 -364 -354 -382
-357 -13 -2 -23 16 -46 80 -44 125 -130 289 -182 347 -45 50 -107 91 -138 91
-28 0 -281 -219 -558 -482 -181 -172 -172 -141 -84 -292 210 -357 555 -632
951 -759 119 -38 264 -71 273 -62 3 3 -6 72 -21 153 -15 81 -27 158 -27 170 0
16 95 124 312 354 273 290 314 337 329 382 19 58 24 60 124 32 136 -37 309
-13 415 59 29 19 58 35 65 35 7 0 55 -11 107 -25 270 -71 547 -80 822 -24
l104 21 66 -50 c89 -69 159 -94 274 -100 67 -3 95 -8 99 -18 5 -15 -26 -834
-32 -844 -2 -4 -76 -55 -164 -114 -89 -60 -161 -112 -161 -117 0 -30 323 -203
484 -259 323 -112 693 -118 1034 -18 59 17 73 25 78 45 7 27 -12 612 -26 792
-11 141 -17 152 -86 171 -84 24 -247 -9 -422 -84 -46 -20 -87 -34 -92 -31 -4
3 -11 185 -15 405 l-7 400 52 77 c79 113 113 207 114 313 1 78 -2 92 -33 154
l-33 68 46 67 c25 38 46 74 46 81 0 14 -67 111 -143 209 l-50 63 18 35 c26 47
44 52 67 20 11 -15 25 -27 31 -27 7 0 40 42 73 93 216 325 343 708 361 1087 7
154 11 164 49 119 73 -88 216 -219 286 -262 102 -64 299 -137 369 -137 77 0
179 43 249 106 14 12 57 35 97 52 232 96 444 330 538 592 44 125 57 203 53
335 l-3 120 46 46 c108 108 143 286 83 421 l-17 37 52 63 c99 121 168 292 178
445 6 85 -28 225 -84 343 -39 81 -58 107 -137 185 -73 73 -108 99 -176 133
-82 41 -198 77 -209 66 -3 -3 59 -130 137 -283 78 -153 142 -285 142 -294 0
-11 -115 -74 -364 -201 -200 -102 -370 -186 -377 -186 -8 0 -75 119 -158 281
-80 157 -147 277 -152 272 -18 -18 -49 -129 -61 -214 -19 -146 16 -315 94
-447 79 -135 252 -273 398 -317 33 -10 60 -22 60 -26 0 -4 -42 -28 -92 -52
-160 -76 -296 -198 -398 -357 -84 -129 -65 -124 -160 -47 -46 36 -117 82 -159
102 -42 20 -83 40 -91 44 -8 4 -20 26 -26 48 -50 171 -194 274 -339 243 -108
-24 -100 -25 -125 15 -12 20 -26 35 -30 33 -4 -2 -33 -36 -65 -75 -31 -40 -62
-73 -68 -73 -7 1 -36 37 -65 80 l-54 80 50 67 c156 212 267 465 321 730 12 56
21 103 21 105 0 3 26 25 58 49 119 93 181 225 189 404 19 407 -244 832 -534
861 -57 6 -64 10 -94 48 -194 244 -432 422 -725 541 -58 24 -108 45 -110 48
-3 3 -10 36 -15 73 -5 38 -12 77 -15 87 -7 22 -70 55 -124 63 -34 6 -46 14
-65 44 -45 71 -80 87 -240 107 l-60 8 -3 237 c-2 210 -1 238 14 250 89 70 114
118 100 191 -17 92 -107 152 -190 127z"/>
<path d="M1317 2978 c-126 -139 -221 -261 -262 -339 l-36 -69 -112 0 c-138 0
-325 -21 -486 -55 -237 -50 -284 -72 -380 -178 -38 -41 -43 -51 -34 -70 6 -12
19 -44 28 -72 82 -236 335 -577 618 -833 120 -108 354 -285 537 -405 199 -130
521 -317 545 -317 4 0 32 24 63 54 52 49 62 54 113 58 43 3 68 13 112 42 218
145 467 478 688 918 l69 138 -15 107 c-23 159 -20 151 -63 158 -290 49 -571
165 -784 325 -187 140 -372 360 -474 561 -19 38 -36 69 -38 69 -2 0 -42 -42
-89 -92z"/>
<path d="M4941 1954 c-55 -40 -107 -86 -114 -101 -26 -51 -116 -339 -152 -485
-88 -361 -106 -630 -54 -821 5 -21 25 -55 44 -75 30 -33 33 -42 28 -82 -3 -25
-1 -60 4 -79 8 -30 16 -37 63 -53 214 -74 752 -194 995 -222 72 -9 166 -21
210 -27 185 -26 635 18 870 86 50 14 127 44 172 66 96 46 97 48 91 178 -4 85
-6 91 -57 182 -117 205 -228 355 -370 501 l-94 97 16 43 c37 97 67 319 67 495
0 87 -2 95 -17 88 -56 -21 -200 -58 -278 -70 -428 -68 -842 28 -1215 279
l-109 74 -100 -74z"/>
</g>
</svg>
